<?xml version='1.0' encoding='utf-8'?>
<mlt LC_NUMERIC="C" producer="main_bin" version="7.13.0" root="C:/Users/seyyid/Documents/Codes/yosun">
 <profile frame_rate_num="25" sample_aspect_num="1" display_aspect_den="9" colorspace="709" progressive="1" description="HD 1080p 25 fps" display_aspect_num="16" frame_rate_den="1" width="1920" height="1080" sample_aspect_den="1"/>
 <producer id="producer0" in="00:00:00.000" out="00:00:26.960">
  <property name="length">675</property>
  <property name="eof">pause</property>
  <property name="resource">1.png</property>
  <property name="ttl">25</property>
  <property name="aspect_ratio">1</property>
  <property name="progressive">1</property>
  <property name="seekable">1</property>
  <property name="format">2</property>
  <property name="meta.media.width">1280</property>
  <property name="meta.media.height">1280</property>
  <property name="mlt_service">qimage</property>
  <property name="kdenlive:clipname"/>
  <property name="kdenlive:duration">00:00:05.000</property>
  <property name="kdenlive:folderid">-1</property>
  <property name="kdenlive:clip_type">2</property>
  <property name="kdenlive:id">2</property>
  <property name="kdenlive:file_size">1444820</property>
  <property name="kdenlive:file_hash">0d324dd05829dcb35b6be2d321b31b02</property>
 </producer>
 <producer id="producer1" in="00:00:00.000" out="00:00:22.520">
  <property name="length">564</property>
  <property name="eof">pause</property>
  <property name="resource">2.png</property>
  <property name="ttl">25</property>
  <property name="aspect_ratio">1</property>
  <property name="progressive">1</property>
  <property name="seekable">1</property>
  <property name="format">2</property>
  <property name="meta.media.width">1280</property>
  <property name="meta.media.height">1280</property>
  <property name="mlt_service">qimage</property>
  <property name="kdenlive:clipname"/>
  <property name="kdenlive:duration">00:00:05.000</property>
  <property name="kdenlive:folderid">-1</property>
  <property name="kdenlive:clip_type">2</property>
  <property name="kdenlive:id">3</property>
  <property name="kdenlive:file_size">1501529</property>
  <property name="kdenlive:file_hash">8061fe66704fabd818d20a85b80d4391</property>
 </producer>
 <producer id="producer2" in="00:00:00.000" out="00:00:26.200">
  <property name="length">656</property>
  <property name="eof">pause</property>
  <property name="resource">3.png</property>
  <property name="ttl">25</property>
  <property name="aspect_ratio">1</property>
  <property name="progressive">1</property>
  <property name="seekable">1</property>
  <property name="format">2</property>
  <property name="meta.media.width">1280</property>
  <property name="meta.media.height">1280</property>
  <property name="mlt_service">qimage</property>
  <property name="kdenlive:clipname"/>
  <property name="kdenlive:duration">00:00:05.000</property>
  <property name="kdenlive:folderid">-1</property>
  <property name="kdenlive:clip_type">2</property>
  <property name="kdenlive:id">4</property>
  <property name="kdenlive:file_size">1421604</property>
  <property name="kdenlive:file_hash">b1933c6c8a3a16f30c6f46fa2b892094</property>
 </producer>
 <producer id="producer3" in="00:00:00.000" out="00:00:59.840">
  <property name="length">1497</property>
  <property name="eof">pause</property>
  <property name="resource">sound edit.wav</property>
  <property name="meta.media.nb_streams">1</property>
  <property name="meta.media.0.stream.type">audio</property>
  <property name="meta.media.0.codec.sample_fmt">s16</property>
  <property name="meta.media.0.codec.sample_rate">44100</property>
  <property name="meta.media.0.codec.channels">1</property>
  <property name="meta.media.0.codec.name">pcm_s16le</property>
  <property name="meta.media.0.codec.long_name">PCM signed 16-bit little-endian</property>
  <property name="meta.media.0.codec.bit_rate">705600</property>
  <property name="seekable">1</property>
  <property name="audio_index">0</property>
  <property name="video_index">-1</property>
  <property name="mute_on_pause">1</property>
  <property name="mlt_service">avformat</property>
  <property name="kdenlive:clipname"/>
  <property name="kdenlive:clip_type">1</property>
  <property name="kdenlive:folderid">-1</property>
  <property name="kdenlive:id">5</property>
  <property name="kdenlive:file_size">5280516</property>
  <property name="kdenlive:file_hash">1f9dcf0d85f5b759f34d1d24d0393c9d</property>
  <property name="kdenlive:audio_max0">189</property>
 </producer>
 <playlist id="main_bin">
  <property name="kdenlive:docproperties.activeTrack">3</property>
  <property name="kdenlive:docproperties.audioChannels">2</property>
  <property name="kdenlive:docproperties.audioTarget">-1</property>
  <property name="kdenlive:docproperties.compositing">1</property>
  <property name="kdenlive:docproperties.disablepreview">0</property>
  <property name="kdenlive:docproperties.documentid">1696527855738</property>
  <property name="kdenlive:docproperties.enableTimelineZone">0</property>
  <property name="kdenlive:docproperties.enableexternalproxy">0</property>
  <property name="kdenlive:docproperties.enableproxy">0</property>
  <property name="kdenlive:docproperties.externalproxyparams"/>
  <property name="kdenlive:docproperties.generateimageproxy">0</property>
  <property name="kdenlive:docproperties.generateproxy">0</property>
  <property name="kdenlive:docproperties.guidesCategories">[
    {
        "color": "#9b59b6",
        "comment": "Category 1",
        "index": 0
    },
    {
        "color": "#3daee9",
        "comment": "Category 2",
        "index": 1
    },
    {
        "color": "#1abc9c",
        "comment": "Category 3",
        "index": 2
    },
    {
        "color": "#1cdc9a",
        "comment": "Category 4",
        "index": 3
    },
    {
        "color": "#c9ce3b",
        "comment": "Category 5",
        "index": 4
    },
    {
        "color": "#fdbc4b",
        "comment": "Category 6",
        "index": 5
    },
    {
        "color": "#f39c1f",
        "comment": "Category 7",
        "index": 6
    },
    {
        "color": "#f47750",
        "comment": "Category 8",
        "index": 7
    },
    {
        "color": "#da4453",
        "comment": "Category 9",
        "index": 8
    }
]
</property>
  <property name="kdenlive:docproperties.kdenliveversion">22.12.2</property>
  <property name="kdenlive:docproperties.position">351</property>
  <property name="kdenlive:docproperties.previewextension"/>
  <property name="kdenlive:docproperties.previewparameters"/>
  <property name="kdenlive:docproperties.profile">atsc_1080p_25</property>
  <property name="kdenlive:docproperties.proxyextension"/>
  <property name="kdenlive:docproperties.proxyimageminsize">2000</property>
  <property name="kdenlive:docproperties.proxyimagesize">800</property>
  <property name="kdenlive:docproperties.proxyminsize">1000</property>
  <property name="kdenlive:docproperties.proxyparams"/>
  <property name="kdenlive:docproperties.proxyresize">640</property>
  <property name="kdenlive:docproperties.scrollPos">0</property>
  <property name="kdenlive:docproperties.seekOffset">30000</property>
  <property name="kdenlive:docproperties.version">1.04</property>
  <property name="kdenlive:docproperties.verticalzoom">1</property>
  <property name="kdenlive:docproperties.videoTarget">-1</property>
  <property name="kdenlive:docproperties.zonein">0</property>
  <property name="kdenlive:docproperties.zoneout">75</property>
  <property name="kdenlive:docproperties.zoom">5</property>
  <property name="kdenlive:expandedFolders"/>
  <property name="kdenlive:documentnotes"/>
  <property name="kdenlive:docproperties.groups">[
    {
        "children": [
            {
                "data": "1:0",
                "leaf": "clip",
                "type": "Leaf"
            },
            {
                "data": "3:0",
                "leaf": "clip",
                "type": "Leaf"
            }
        ],
        "type": "Normal"
    },
    {
        "children": [
            {
                "data": "3:1329",
                "leaf": "clip",
                "type": "Leaf"
            },
            {
                "data": "1:1329",
                "leaf": "clip",
                "type": "Leaf"
            }
        ],
        "type": "Normal"
    },
    {
        "children": [
            {
                "data": "1:1163",
                "leaf": "clip",
                "type": "Leaf"
            },
            {
                "data": "3:1163",
                "leaf": "clip",
                "type": "Leaf"
            }
        ],
        "type": "Normal"
    },
    {
        "children": [
            {
                "data": "3:348",
                "leaf": "clip",
                "type": "Leaf"
            },
            {
                "data": "1:348",
                "leaf": "clip",
                "type": "Leaf"
            }
        ],
        "type": "Normal"
    },
    {
        "children": [
            {
                "data": "3:641",
                "leaf": "clip",
                "type": "Leaf"
            },
            {
                "data": "1:641",
                "leaf": "clip",
                "type": "Leaf"
            }
        ],
        "type": "Normal"
    },
    {
        "children": [
            {
                "data": "1:223",
                "leaf": "clip",
                "type": "Leaf"
            },
            {
                "data": "3:223",
                "leaf": "clip",
                "type": "Leaf"
            }
        ],
        "type": "Normal"
    },
    {
        "children": [
            {
                "data": "1:269",
                "leaf": "clip",
                "type": "Leaf"
            },
            {
                "data": "3:269",
                "leaf": "clip",
                "type": "Leaf"
            }
        ],
        "type": "Normal"
    },
    {
        "children": [
            {
                "data": "1:481",
                "leaf": "clip",
                "type": "Leaf"
            },
            {
                "data": "3:481",
                "leaf": "clip",
                "type": "Leaf"
            }
        ],
        "type": "Normal"
    },
    {
        "children": [
            {
                "data": "3:162",
                "leaf": "clip",
                "type": "Leaf"
            },
            {
                "data": "1:162",
                "leaf": "clip",
                "type": "Leaf"
            }
        ],
        "type": "Normal"
    },
    {
        "children": [
            {
                "data": "3:747",
                "leaf": "clip",
                "type": "Leaf"
            },
            {
                "data": "1:747",
                "leaf": "clip",
                "type": "Leaf"
            }
        ],
        "type": "Normal"
    },
    {
        "children": [
            {
                "data": "3:1422",
                "leaf": "clip",
                "type": "Leaf"
            },
            {
                "data": "1:1422",
                "leaf": "clip",
                "type": "Leaf"
            }
        ],
        "type": "Normal"
    },
    {
        "children": [
            {
                "data": "3:67",
                "leaf": "clip",
                "type": "Leaf"
            },
            {
                "data": "1:67",
                "leaf": "clip",
                "type": "Leaf"
            }
        ],
        "type": "Normal"
    },
    {
        "children": [
            {
                "data": "3:429",
                "leaf": "clip",
                "type": "Leaf"
            },
            {
                "data": "1:429",
                "leaf": "clip",
                "type": "Leaf"
            }
        ],
        "type": "Normal"
    },
    {
        "children": [
            {
                "data": "1:107",
                "leaf": "clip",
                "type": "Leaf"
            },
            {
                "data": "3:107",
                "leaf": "clip",
                "type": "Leaf"
            }
        ],
        "type": "Normal"
    },
    {
        "children": [
            {
                "data": "1:880",
                "leaf": "clip",
                "type": "Leaf"
            },
            {
                "data": "3:880",
                "leaf": "clip",
                "type": "Leaf"
            }
        ],
        "type": "Normal"
    },
    {
        "children": [
            {
                "data": "3:1036",
                "leaf": "clip",
                "type": "Leaf"
            },
            {
                "data": "1:1036",
                "leaf": "clip",
                "type": "Leaf"
            }
        ],
        "type": "Normal"
    }
]
</property>
  <property name="xml_retain">1</property>
  <entry producer="producer0" in="00:00:00.000" out="00:00:04.960"/>
  <entry producer="producer1" in="00:00:00.000" out="00:00:04.960"/>
  <entry producer="producer2" in="00:00:00.000" out="00:00:04.960"/>
  <entry producer="producer3" in="00:00:00.000" out="00:00:59.840"/>
 </playlist>
 <producer id="black_track" in="00:00:00.000" out="00:20:58.600">
  <property name="length">2147483647</property>
  <property name="eof">continue</property>
  <property name="resource">black</property>
  <property name="aspect_ratio">1</property>
  <property name="mlt_service">color</property>
  <property name="mlt_image_format">rgba</property>
  <property name="set.test_audio">0</property>
 </producer>
 <playlist id="playlist0">
  <property name="kdenlive:audio_track">1</property>
 </playlist>
 <playlist id="playlist1">
  <property name="kdenlive:audio_track">1</property>
 </playlist>
 <tractor id="tractor0" in="00:00:00.000">
  <property name="kdenlive:audio_track">1</property>
  <property name="kdenlive:trackheight">67</property>
  <property name="kdenlive:timeline_active">1</property>
  <property name="kdenlive:collapsed">0</property>
  <property name="kdenlive:thumbs_format"/>
  <property name="kdenlive:audio_rec"/>
  <track hide="video" producer="playlist0"/>
  <track hide="video" producer="playlist1"/>
  <filter id="filter0">
   <property name="window">75</property>
   <property name="max_gain">20dB</property>
   <property name="mlt_service">volume</property>
   <property name="internal_added">237</property>
   <property name="disable">1</property>
  </filter>
  <filter id="filter1">
   <property name="channel">-1</property>
   <property name="mlt_service">panner</property>
   <property name="internal_added">237</property>
   <property name="start">0.5</property>
   <property name="disable">1</property>
  </filter>
  <filter id="filter2">
   <property name="iec_scale">0</property>
   <property name="mlt_service">audiolevel</property>
   <property name="dbpeak">1</property>
   <property name="disable">1</property>
  </filter>
 </tractor>
 <producer id="producer4" in="00:00:00.000" out="00:00:59.840">
  <property name="length">1497</property>
  <property name="eof">pause</property>
  <property name="resource">sound edit.wav</property>
  <property name="meta.media.nb_streams">1</property>
  <property name="meta.media.0.stream.type">audio</property>
  <property name="meta.media.0.codec.sample_fmt">s16</property>
  <property name="meta.media.0.codec.sample_rate">44100</property>
  <property name="meta.media.0.codec.channels">1</property>
  <property name="meta.media.0.codec.name">pcm_s16le</property>
  <property name="meta.media.0.codec.long_name">PCM signed 16-bit little-endian</property>
  <property name="meta.media.0.codec.bit_rate">705600</property>
  <property name="seekable">1</property>
  <property name="audio_index">0</property>
  <property name="video_index">-1</property>
  <property name="mute_on_pause">0</property>
  <property name="mlt_service">avformat-novalidate</property>
  <property name="kdenlive:clipname"/>
  <property name="kdenlive:clip_type">1</property>
  <property name="kdenlive:folderid">-1</property>
  <property name="kdenlive:id">5</property>
  <property name="kdenlive:file_size">5280516</property>
  <property name="kdenlive:file_hash">1f9dcf0d85f5b759f34d1d24d0393c9d</property>
  <property name="kdenlive:audio_max0">189</property>
  <property name="xml">was here</property>
  <property name="set.test_audio">0</property>
  <property name="set.test_image">1</property>
 </producer>
 <playlist id="playlist2">
  <property name="kdenlive:audio_track">1</property>
  <entry producer="producer4" in="00:00:00.000" out="00:00:02.640">
   <property name="kdenlive:id">5</property>
  </entry>
  <entry producer="producer4" in="00:00:02.680" out="00:00:04.240">
   <property name="kdenlive:id">5</property>
  </entry>
  <entry producer="producer4" in="00:00:04.280" out="00:00:06.440">
   <property name="kdenlive:id">5</property>
  </entry>
  <entry producer="producer4" in="00:00:06.480" out="00:00:08.880">
   <property name="kdenlive:id">5</property>
  </entry>
  <entry producer="producer4" in="00:00:08.920" out="00:00:10.720">
   <property name="kdenlive:id">5</property>
  </entry>
  <entry producer="producer4" in="00:00:10.760" out="00:00:13.880">
   <property name="kdenlive:id">5</property>
  </entry>
  <entry producer="producer4" in="00:00:13.920" out="00:00:17.120">
   <property name="kdenlive:id">5</property>
  </entry>
  <entry producer="producer4" in="00:00:17.160" out="00:00:19.200">
   <property name="kdenlive:id">5</property>
  </entry>
  <entry producer="producer4" in="00:00:20.520" out="00:00:26.880">
   <property name="kdenlive:id">5</property>
  </entry>
  <entry producer="producer4" in="00:00:26.920" out="00:00:31.120">
   <property name="kdenlive:id">5</property>
  </entry>
  <entry producer="producer4" in="00:00:31.160" out="00:00:36.440">
   <property name="kdenlive:id">5</property>
  </entry>
  <entry producer="producer4" in="00:00:36.480" out="00:00:42.680">
   <property name="kdenlive:id">5</property>
  </entry>
  <entry producer="producer4" in="00:00:42.720" out="00:00:47.760">
   <property name="kdenlive:id">5</property>
  </entry>
  <entry producer="producer4" in="00:00:47.800" out="00:00:54.400">
   <property name="kdenlive:id">5</property>
  </entry>
  <entry producer="producer4" in="00:00:54.440" out="00:00:58.120">
   <property name="kdenlive:id">5</property>
  </entry>
  <entry producer="producer4" in="00:00:58.160" out="00:00:59.840">
   <property name="kdenlive:id">5</property>
  </entry>
 </playlist>
 <playlist id="playlist3">
  <property name="kdenlive:audio_track">1</property>
 </playlist>
 <tractor id="tractor1" in="00:00:00.000" out="00:00:58.560">
  <property name="kdenlive:audio_track">1</property>
  <property name="kdenlive:trackheight">67</property>
  <property name="kdenlive:timeline_active">1</property>
  <property name="kdenlive:collapsed">0</property>
  <property name="kdenlive:thumbs_format"/>
  <property name="kdenlive:audio_rec"/>
  <track hide="video" producer="playlist2"/>
  <track hide="video" producer="playlist3"/>
  <filter id="filter3">
   <property name="window">75</property>
   <property name="max_gain">20dB</property>
   <property name="mlt_service">volume</property>
   <property name="internal_added">237</property>
   <property name="disable">1</property>
  </filter>
  <filter id="filter4">
   <property name="channel">-1</property>
   <property name="mlt_service">panner</property>
   <property name="internal_added">237</property>
   <property name="start">0.5</property>
   <property name="disable">1</property>
  </filter>
  <filter id="filter5">
   <property name="iec_scale">0</property>
   <property name="mlt_service">audiolevel</property>
   <property name="dbpeak">1</property>
   <property name="disable">1</property>
  </filter>
 </tractor>
 <playlist id="playlist4"/>
 <playlist id="playlist5"/>
 <tractor id="tractor2" in="00:00:00.000">
  <property name="kdenlive:trackheight">67</property>
  <property name="kdenlive:timeline_active">1</property>
  <property name="kdenlive:collapsed">0</property>
  <property name="kdenlive:thumbs_format"/>
  <property name="kdenlive:audio_rec"/>
  <track hide="audio" producer="playlist4"/>
  <track hide="audio" producer="playlist5"/>
 </tractor>
 <playlist id="playlist6">
  <entry producer="producer0" in="00:00:00.000" out="00:00:02.640">
   <property name="kdenlive:id">2</property>
   <property name="kdenlive:activeeffect">0</property>
   <property name="kdenlive:hide_keyframes">1</property>
   <filter id="filter6">
    <property name="rotate_center">1</property>
    <property name="mlt_service">qtblend</property>
    <property name="kdenlive_id">qtblend</property>
    <property name="rect">00:00:00.000=-1408 -499 5760 3240 1.000000;00:00:02.640=-1509 -457 5760 3240 1.000000</property>
    <property name="rotation">00:00:00.000=0;00:00:02.640=0</property>
    <property name="compositing">0</property>
    <property name="distort">0</property>
    <property name="kdenlive:collapsed">0</property>
    <property name="kdenlive:kfrhidden">0</property>
   </filter>
  </entry>
  <entry producer="producer0" in="00:00:00.000" out="00:00:01.560">
   <property name="kdenlive:id">2</property>
   <filter id="filter7">
    <property name="rotate_center">1</property>
    <property name="mlt_service">qtblend</property>
    <property name="kdenlive_id">qtblend</property>
    <property name="rect">00:00:00.000=-1055 -582 5760 3240 1.000000;00:00:01.560=-1028 -613 5760 3240 1.000000</property>
    <property name="rotation">00:00:00.000=0;00:00:01.560=0</property>
    <property name="compositing">0</property>
    <property name="distort">0</property>
    <property name="kdenlive:collapsed">0</property>
   </filter>
  </entry>
  <entry producer="producer0" in="00:00:00.000" out="00:00:02.160">
   <property name="kdenlive:id">2</property>
   <filter id="filter8">
    <property name="rotate_center">1</property>
    <property name="mlt_service">qtblend</property>
    <property name="kdenlive_id">qtblend</property>
    <property name="rect">00:00:00.000=-3371 -32 6720 3780 1.000000;00:00:02.160=-3180 5 6432 3618 1.000000</property>
    <property name="rotation">00:00:00.000=0;00:00:02.160=0</property>
    <property name="compositing">0</property>
    <property name="distort">0</property>
    <property name="kdenlive:collapsed">0</property>
   </filter>
  </entry>
  <entry producer="producer0" in="00:00:00.000" out="00:00:02.400">
   <property name="kdenlive:id">2</property>
   <filter id="filter9">
    <property name="rotate_center">1</property>
    <property name="mlt_service">qtblend</property>
    <property name="kdenlive_id">qtblend</property>
    <property name="rect">00:00:00.000=-4005 -1223 7751 4360 1.000000;00:00:02.400=-4567 -1530 8894 5002 1.000000</property>
    <property name="rotation">00:00:00.000=0;00:00:02.400=0</property>
    <property name="compositing">0</property>
    <property name="distort">0</property>
    <property name="kdenlive:collapsed">0</property>
   </filter>
  </entry>
  <entry producer="producer0" in="00:00:00.000" out="00:00:01.800">
   <property name="kdenlive:id">2</property>
   <filter id="filter10">
    <property name="rotate_center">1</property>
    <property name="mlt_service">qtblend</property>
    <property name="kdenlive_id">qtblend</property>
    <property name="rect">00:00:00.000=-1222 -2070 5760 3240 1.000000;00:00:01.800=-1051 -1958 5341 3031 1.000000</property>
    <property name="rotation">00:00:00.000=0;00:00:01.800=0</property>
    <property name="compositing">0</property>
    <property name="distort">0</property>
    <property name="kdenlive:collapsed">0</property>
   </filter>
  </entry>
  <entry producer="producer0" in="00:00:00.000" out="00:00:03.120">
   <property name="kdenlive:id">2</property>
   <filter id="filter11">
    <property name="rotate_center">1</property>
    <property name="mlt_service">qtblend</property>
    <property name="kdenlive_id">qtblend</property>
    <property name="rect">00:00:00.000=-2462 -1966 5365 3054 1.000000;00:00:03.120=-2570 -2111 5563 3218 1.000000</property>
    <property name="rotation">00:00:00.000=0;00:00:03.120=0</property>
    <property name="compositing">0</property>
    <property name="distort">0</property>
    <property name="kdenlive:collapsed">0</property>
   </filter>
  </entry>
  <entry producer="producer1" in="00:00:00.000" out="00:00:03.200">
   <property name="kdenlive:id">3</property>
   <property name="kdenlive:activeeffect">0</property>
   <filter id="filter12">
    <property name="rotate_center">1</property>
    <property name="mlt_service">qtblend</property>
    <property name="kdenlive_id">qtblend</property>
    <property name="rect">00:00:00.000=-1481 -828 6763 3810 1.000000;00:00:03.200=-1732 -1086 7787 4332 1.000000</property>
    <property name="rotation">00:00:00.000=0;00:00:03.200=0</property>
    <property name="compositing">0</property>
    <property name="distort">0</property>
    <property name="kdenlive:collapsed">0</property>
   </filter>
  </entry>
  <entry producer="producer1" in="00:00:00.000" out="00:00:02.040">
   <property name="kdenlive:id">3</property>
   <filter id="filter13">
    <property name="rotate_center">1</property>
    <property name="mlt_service">qtblend</property>
    <property name="kdenlive_id">qtblend</property>
    <property name="rect">00:00:00.000=-1376 -749 6434 3632 1.000000;00:00:02.040=-1687 -867 6717 3847 1.000000</property>
    <property name="rotation">00:00:00.000=0;00:00:02.040=0</property>
    <property name="compositing">0</property>
    <property name="distort">0</property>
    <property name="kdenlive:collapsed">0</property>
   </filter>
  </entry>
  <entry producer="producer1" in="00:00:00.000" out="00:00:06.360">
   <property name="kdenlive:id">3</property>
   <filter id="filter14">
    <property name="rotate_center">1</property>
    <property name="mlt_service">qtblend</property>
    <property name="kdenlive_id">qtblend</property>
    <property name="rect">00:00:00.000=-2612 -589 5760 3240 1.000000;00:00:06.360=-2846 -633 5979 3378 1.000000</property>
    <property name="rotation">00:00:00.000=0;00:00:06.360=0</property>
    <property name="compositing">0</property>
    <property name="distort">0</property>
    <property name="kdenlive:collapsed">0</property>
   </filter>
  </entry>
  <entry producer="producer1" in="00:00:00.000" out="00:00:04.200">
   <property name="kdenlive:id">3</property>
   <filter id="filter15">
    <property name="rotate_center">1</property>
    <property name="mlt_service">qtblend</property>
    <property name="kdenlive_id">qtblend</property>
    <property name="rect">00:00:00.000=-908 -1414 4487 2524 1.000000</property>
    <property name="rotation">00:00:00.000=0</property>
    <property name="compositing">0</property>
    <property name="distort">0</property>
    <property name="kdenlive:collapsed">0</property>
   </filter>
  </entry>
  <entry producer="producer1" in="00:00:00.000" out="00:00:05.280">
   <property name="kdenlive:id">3</property>
   <filter id="filter16">
    <property name="rotate_center">1</property>
    <property name="mlt_service">qtblend</property>
    <property name="kdenlive_id">qtblend</property>
    <property name="rect">00:00:00.000=-3194 -2556 6495 3789 1.000000</property>
    <property name="rotation">00:00:00.000=0</property>
    <property name="compositing">0</property>
    <property name="distort">0</property>
    <property name="kdenlive:collapsed">0</property>
   </filter>
  </entry>
  <entry producer="producer2" in="00:00:00.000" out="00:00:06.200">
   <property name="kdenlive:id">4</property>
   <property name="kdenlive:activeeffect">0</property>
   <filter id="filter17">
    <property name="rotate_center">1</property>
    <property name="mlt_service">qtblend</property>
    <property name="kdenlive_id">qtblend</property>
    <property name="rect">00:00:00.000=-1225 -592 5760 3240 1.000000</property>
    <property name="rotation">00:00:00.000=0</property>
    <property name="compositing">0</property>
    <property name="distort">0</property>
    <property name="kdenlive:collapsed">0</property>
   </filter>
  </entry>
  <entry producer="producer2" in="00:00:00.000" out="00:00:05.040">
   <property name="kdenlive:id">4</property>
   <filter id="filter18">
    <property name="rotate_center">1</property>
    <property name="mlt_service">qtblend</property>
    <property name="kdenlive_id">qtblend</property>
    <property name="rect">00:00:00.000=-2865 -715 6061 3582 1.000000</property>
    <property name="rotation">00:00:00.000=0</property>
    <property name="compositing">0</property>
    <property name="distort">0</property>
    <property name="kdenlive:collapsed">0</property>
   </filter>
  </entry>
  <entry producer="producer2" in="00:00:00.000" out="00:00:06.600">
   <property name="kdenlive:id">4</property>
   <filter id="filter19">
    <property name="rotate_center">1</property>
    <property name="mlt_service">qtblend</property>
    <property name="kdenlive_id">qtblend</property>
    <property name="rect">00:00:00.000=-1067 -2147 5760 3240 1.000000</property>
    <property name="rotation">00:00:00.000=0</property>
    <property name="compositing">0</property>
    <property name="distort">0</property>
    <property name="kdenlive:collapsed">0</property>
   </filter>
  </entry>
  <entry producer="producer2" in="00:00:00.000" out="00:00:03.680">
   <property name="kdenlive:id">4</property>
   <filter id="filter20">
    <property name="rotate_center">1</property>
    <property name="mlt_service">qtblend</property>
    <property name="kdenlive_id">qtblend</property>
    <property name="rect">00:00:00.000=-2341 -1950 5349 3038 1.000000</property>
    <property name="rotation">00:00:00.000=0</property>
    <property name="compositing">0</property>
    <property name="distort">0</property>
    <property name="kdenlive:collapsed">0</property>
   </filter>
  </entry>
  <entry producer="producer2" in="00:00:00.000" out="00:00:01.680">
   <property name="kdenlive:id">4</property>
   <filter id="filter21">
    <property name="rotate_center">1</property>
    <property name="mlt_service">qtblend</property>
    <property name="kdenlive_id">qtblend</property>
    <property name="rect">00:00:00.000=-3565 -2179 6772 3844 1.000000</property>
    <property name="rotation">00:00:00.000=0</property>
    <property name="compositing">0</property>
    <property name="distort">0</property>
    <property name="kdenlive:collapsed">0</property>
   </filter>
  </entry>
 </playlist>
 <playlist id="playlist7"/>
 <tractor id="tractor3" in="00:00:00.000" out="00:00:58.560">
  <property name="kdenlive:trackheight">67</property>
  <property name="kdenlive:timeline_active">1</property>
  <property name="kdenlive:collapsed">0</property>
  <property name="kdenlive:thumbs_format"/>
  <property name="kdenlive:audio_rec"/>
  <track hide="audio" producer="playlist6"/>
  <track hide="audio" producer="playlist7"/>
 </tractor>
 <tractor id="tractor4" in="00:00:00.000" out="00:20:58.600">
  <track producer="black_track"/>
  <track producer="tractor0"/>
  <track producer="tractor1"/>
  <track producer="tractor2"/>
  <track producer="tractor3"/>
  <transition id="transition0">
   <property name="a_track">0</property>
   <property name="b_track">1</property>
   <property name="mlt_service">mix</property>
   <property name="kdenlive_id">mix</property>
   <property name="internal_added">237</property>
   <property name="always_active">1</property>
   <property name="accepts_blanks">1</property>
   <property name="sum">1</property>
  </transition>
  <transition id="transition1">
   <property name="a_track">0</property>
   <property name="b_track">2</property>
   <property name="mlt_service">mix</property>
   <property name="kdenlive_id">mix</property>
   <property name="internal_added">237</property>
   <property name="always_active">1</property>
   <property name="accepts_blanks">1</property>
   <property name="sum">1</property>
  </transition>
  <transition id="transition2">
   <property name="a_track">0</property>
   <property name="b_track">3</property>
   <property name="compositing">0</property>
   <property name="distort">0</property>
   <property name="rotate_center">0</property>
   <property name="mlt_service">qtblend</property>
   <property name="always_active">1</property>
   <property name="internal_added">237</property>
  </transition>
  <transition id="transition3">
   <property name="a_track">0</property>
   <property name="b_track">4</property>
   <property name="compositing">0</property>
   <property name="distort">0</property>
   <property name="rotate_center">0</property>
   <property name="mlt_service">qtblend</property>
   <property name="always_active">1</property>
   <property name="internal_added">237</property>
  </transition>
  <filter id="filter22">
   <property name="window">75</property>
   <property name="max_gain">20dB</property>
   <property name="mlt_service">volume</property>
   <property name="internal_added">237</property>
   <property name="disable">1</property>
  </filter>
  <filter id="filter23">
   <property name="channel">-1</property>
   <property name="mlt_service">panner</property>
   <property name="internal_added">237</property>
   <property name="start">0.5</property>
   <property name="disable">1</property>
  </filter>
 </tractor>
</mlt>
